<svg width="114" height="114" viewBox="0 0 114 114" fill="none" xmlns="http://www.w3.org/2000/svg">
<path d="M60.325 26.2438C57 22.9188 52.725 21.2563 47.5 21.2563C42.275 21.2563 38 22.9188 34.675 26.2438C31.35 29.5688 29.6875 33.8438 29.6875 39.0688C29.6875 44.2938 31.35 48.5688 34.675 51.8938C38 55.2188 42.275 56.8813 47.5 56.8813C52.725 56.8813 57 55.2188 60.325 51.8938C63.65 48.5688 65.3125 44.2938 65.3125 39.0688C65.3125 33.8438 63.65 29.5688 60.325 26.2438ZM55.1712 46.7163C53.1525 48.735 50.5875 49.7563 47.5 49.7563C44.4125 49.7563 41.8713 48.735 39.8525 46.7163C37.8338 44.6975 36.8125 42.1563 36.8125 39.0688C36.8125 35.9813 37.8338 33.4163 39.8525 31.3975C41.8713 29.3788 44.4125 28.3813 47.5 28.3813C50.5875 28.3813 53.1525 29.3788 55.1712 31.3975C57.19 33.4163 58.1875 35.9813 58.1875 39.0688C58.1875 42.1563 57.19 44.6975 55.1712 46.7163ZM103.194 83.6C102.315 82.1038 101.104 80.9875 99.5125 80.275C96.5913 78.6838 93.6225 77.5675 90.6063 76.8788C87.59 76.2138 84.4788 75.8813 81.225 75.8813C77.9713 75.8813 74.86 76.2375 71.8438 76.95C68.8275 77.6625 65.8587 78.7788 62.9375 80.275C61.3463 81.0588 60.135 82.1988 59.2563 83.6475C58.3775 85.12 57.95 86.8775 57.95 88.9438V95H104.5V88.9438C104.5 86.8775 104.073 85.0963 103.194 83.6ZM89.1575 49.6613C86.9963 47.5 84.36 46.4313 81.225 46.4313C78.09 46.4313 75.4538 47.5 73.2925 49.6613C71.1313 51.8225 70.0625 54.4588 70.0625 57.5938C70.0625 60.7288 71.1313 63.365 73.2925 65.5263C75.4538 67.6875 78.09 68.7563 81.225 68.7563C84.36 68.7563 86.9963 67.6875 89.1575 65.5263C91.3188 63.365 92.3875 60.7288 92.3875 57.5938C92.3875 54.4588 91.3188 51.8225 89.1575 49.6613Z" fill="currentColor"/>
<path d="M47.5 52.2737C54.7929 52.2737 60.705 46.3617 60.705 39.0687C60.705 31.7758 54.7929 25.8637 47.5 25.8637C40.2071 25.8637 34.295 31.7758 34.295 39.0687C34.295 46.3617 40.2071 52.2737 47.5 52.2737Z" fill="currentColor"/>
<path d="M75.81 71.06C72.8175 71.155 69.9675 71.63 67.1888 72.4137C66.7375 72.5562 66.12 72.7462 65.5025 72.96C63.9588 73.4825 62.4388 74.0763 60.99 74.8363C56.8575 77.0213 52.63 80.5837 52.2262 88.1125V95H9.5V83.8375C9.5 81.1537 10.165 78.66 11.5187 76.4037C12.8725 74.1475 14.8675 72.4375 17.5275 71.25C22.8713 68.875 27.9775 67.0938 32.8463 65.9062C33.6775 65.7163 34.485 65.5263 35.3162 65.36C35.3638 65.3363 35.4113 65.3362 35.4588 65.3125C36.8363 64.9325 38.2612 64.6237 39.4962 64.4812C41.4912 64.2437 43.7475 64.125 46.3125 64.125H47.4762C50.0175 64.125 52.3213 64.125 54.2687 64.4812C56.05 64.79 60.0875 65.6925 60.9425 65.9062C65.6925 67.07 70.6325 68.78 75.81 71.06Z" fill="currentColor"/>
</svg>
