<svg width="45" height="46" viewBox="0 0 45 46" fill="none" xmlns="http://www.w3.org/2000/svg">
<g id="system-icon/20px/calender">
<g id="Group">
<path id="Vector" d="M33.75 10.76H32.625V8.42C32.625 7.7675 32.13 7.25 31.5 7.25C30.87 7.25 30.375 7.7675 30.375 8.42V10.76H14.625V8.42C14.625 7.7675 14.13 7.25 13.5 7.25C12.87 7.25 12.375 7.7675 12.375 8.42V10.76H11.25C10.0125 10.76 9 11.795 9 13.1V36.4325C9 37.715 10.0125 38.7725 11.25 38.7725H33.75C34.9875 38.7725 36 37.7375 36 36.4325V13.0775C36 11.795 34.9875 10.7375 33.75 10.7375V10.76ZM33.75 36.4325H11.25V21.2675H33.75V36.4325Z" fill="currentColor"/>
<path id="Vector_2" d="M16.875 29.4125C17.4963 29.4125 18 28.8887 18 28.2425C18 27.5963 17.4963 27.0725 16.875 27.0725C16.2537 27.0725 15.75 27.5963 15.75 28.2425C15.75 28.8887 16.2537 29.4125 16.875 29.4125Z" fill="currentColor"/>
<path id="Vector_3" d="M22.5 29.4125C23.13 29.4125 23.625 28.895 23.625 28.2425C23.625 27.59 23.13 27.0725 22.5 27.0725C21.87 27.0725 21.375 27.59 21.375 28.2425C21.375 28.895 21.87 29.4125 22.5 29.4125Z" fill="currentColor"/>
<path id="Vector_4" d="M28.125 29.4125C28.7463 29.4125 29.25 28.8887 29.25 28.2425C29.25 27.5963 28.7463 27.0725 28.125 27.0725C27.5037 27.0725 27 27.5963 27 28.2425C27 28.8887 27.5037 29.4125 28.125 29.4125Z" fill="currentColor"/>
</g>
</g>
</svg>
