<svg width="14" height="12" viewBox="0 0 14 12" fill="none" xmlns="http://www.w3.org/2000/svg">
<g id="Group">
<path id="Vector" d="M13 4H8V1.33C8 0.59 7.40001 0 6.67001 0C6.25001 0 5.86001 0.2 5.60001 0.53L3 4H1C0.45 4 0 4.45 0 5V11C0 11.55 0.45 12 1 12H11.32C11.73 12 12.1 11.75 12.25 11.37L13.93 7.18C13.98 7.06 14 6.94 14 6.81V5C14 4.45 13.55 4 13 4ZM3 11H1V5H3V11ZM13 6.81L11.32 11H4V4.33L6.39999 1.13C6.45999 1.05 6.56001 1 6.67001 1C6.85001 1 7 1.15 7 1.33V5H13V6.81Z" fill="currentColor"/>
</g>
</svg>
