<svg width="14" height="12" viewBox="0 0 14 12" fill="none" xmlns="http://www.w3.org/2000/svg">
<g id="Group">
<path id="Vector" d="M1 8L6 8L6 10.67C6 11.41 6.59999 12 7.32999 12C7.74999 12 8.13999 11.8 8.39999 11.47L11 8L13 8C13.55 8 14 7.55 14 7L14 1C14 0.45 13.55 3.93402e-08 13 8.74228e-08L2.67999 9.89626e-07C2.26999 1.02547e-06 1.9 0.250001 1.75 0.630001L0.0700067 4.82C0.0200065 4.94 -6.06714e-07 5.06 -5.95349e-07 5.19L-4.37114e-07 7C-3.89031e-07 7.55 0.449999 8 1 8ZM11 1L13 1L13 7L11 7L11 1ZM0.999999 5.19L2.67999 1L10 1L10 7.67L7.60001 10.87C7.54001 10.95 7.43999 11 7.32999 11C7.14999 11 7 10.85 7 10.67L7 7L1 7L0.999999 5.19Z" fill="currentColor"/>
</g>
</svg>
