<svg width="20" height="20" viewBox="0 0 20 20" fill="none" xmlns="http://www.w3.org/2000/svg">
<g id="ic-home">
<path id="Vector" d="M16.6719 8.5623L10.4219 2.88261C10.3067 2.77721 10.1562 2.71875 10 2.71875C9.84384 2.71875 9.69334 2.77721 9.57812 2.88261L3.32812 8.5623C3.26523 8.6217 3.21486 8.69308 3.17998 8.77224C3.14509 8.8514 3.1264 8.93674 3.125 9.02324V16.2498C3.125 16.4156 3.19085 16.5745 3.30806 16.6917C3.42527 16.809 3.58424 16.8748 3.75 16.8748H16.25C16.4158 16.8748 16.5747 16.809 16.6919 16.6917C16.8092 16.5745 16.875 16.4156 16.875 16.2498V9.02324C16.8736 8.93674 16.8549 8.8514 16.82 8.77224C16.7851 8.69308 16.7348 8.6217 16.6719 8.5623V8.5623Z" stroke="currentColor" stroke-width="1.5" stroke-linecap="round" stroke-linejoin="round"/>
</g>
</svg>
