<svg width="114" height="114" viewBox="0 0 114 114" fill="none" xmlns="http://www.w3.org/2000/svg">
<rect width="114" height="114" fill="white"/>
<path d="M57 56.8813C51.775 56.8813 47.5 55.2188 44.175 51.8938C40.85 48.5688 39.1875 44.2938 39.1875 39.0688C39.1875 33.8438 40.85 29.5688 44.175 26.2438C47.5 22.9188 51.775 21.2563 57 21.2563C62.225 21.2563 66.5 22.9188 69.825 26.2438C73.15 29.5688 74.8125 33.8438 74.8125 39.0688C74.8125 44.2938 73.15 48.5688 69.825 51.8938C66.5 55.2188 62.225 56.8813 57 56.8813ZM19 95V83.8375C19 80.8292 19.7521 78.2563 21.2562 76.1188C22.7604 73.9813 24.7 72.3583 27.075 71.25C32.3792 68.875 37.4656 67.0938 42.3344 65.9063C47.2031 64.7188 52.0917 64.125 57 64.125C61.9083 64.125 66.7771 64.7385 71.6063 65.9656C76.4354 67.1927 81.499 68.9619 86.7969 71.273C89.2749 72.3914 91.2616 74.0129 92.7569 76.1378C94.2523 78.2626 95 80.8292 95 83.8375V95H19ZM26.125 87.875H87.875V83.8375C87.875 82.5708 87.499 81.3636 86.7469 80.2156C85.9948 79.0677 85.0646 78.2167 83.9562 77.6625C78.8896 75.2083 74.2583 73.5261 70.0625 72.6156C65.8667 71.7052 61.5125 71.25 57 71.25C52.4875 71.25 48.0938 71.7052 43.8188 72.6156C39.5437 73.5261 34.9125 75.2083 29.925 77.6625C28.8167 78.2167 27.9062 79.0677 27.1937 80.2156C26.4812 81.3636 26.125 82.5708 26.125 83.8375V87.875ZM57 49.7563C60.0875 49.7563 62.6406 48.7469 64.6594 46.7281C66.6781 44.7094 67.6875 42.1563 67.6875 39.0688C67.6875 35.9813 66.6781 33.4281 64.6594 31.4094C62.6406 29.3906 60.0875 28.3813 57 28.3813C53.9125 28.3813 51.3594 29.3906 49.3406 31.4094C47.3219 33.4281 46.3125 35.9813 46.3125 39.0688C46.3125 42.1563 47.3219 44.7094 49.3406 46.7281C51.3594 48.7469 53.9125 49.7563 57 49.7563Z" fill="currentColor"/>
<circle cx="57" cy="38.95" r="13.3" fill="currentColor"/>
<ellipse cx="57.475" cy="84.55" rx="33.725" ry="9.5" fill="currentColor"/>
<ellipse cx="57.475" cy="78.375" rx="30.875" ry="9.025" fill="currentColor"/>
</svg>
