<svg width="24" height="24" viewBox="0 0 24 24" fill="none" xmlns="http://www.w3.org/2000/svg">
<g id="ic-bag-wh-md" clip-path="url(#clip0_2327_5807)">
<path id="Vector" d="M18.25 4H5.75C5.33579 4 5 4.33579 5 4.75L3 19.25C3 19.6642 3.33579 20 3.75 20H20.25C20.6642 20 21 19.6642 21 19.25L19 4.75C19 4.33579 18.6642 4 18.25 4Z" stroke="currentColor" stroke-width="2" stroke-linecap="round" stroke-linejoin="round"/>
<path id="Vector_2" d="M15.75 7.75C15.75 8.74456 15.3549 9.69839 14.6517 10.4017C13.9484 11.1049 12.9946 11.5 12 11.5C11.0054 11.5 10.0516 11.1049 9.34835 10.4017C8.64509 9.69839 8.25 8.74456 8.25 7.75" stroke="currentColor" stroke-width="2" stroke-linecap="round" stroke-linejoin="round"/>
</g>
<defs>
<clipPath id="clip0_2327_5807">
<rect width="24" height="24" fill="currentColor"/>
</clipPath>
</defs>
</svg>
